<svg width="712" height="34" viewBox="0 0 712 34" fill="none" xmlns="http://www.w3.org/2000/svg">
<path d="M645.251 1.66165C645.666 1.9863 646.392 1.72941 646.863 1.09141C646.863 1.09141 646.863 1.09139 646.92 1.16196C647.521 1.91007 648.023 0.848589 648.246 1.03773C649.048 1.72373 649.59 1.65322 650.468 1.07168C650.7 0.919232 651.77 1.78305 652.523 1.91855C653.082 2.01736 653.082 2.01737 653.082 2.01737C653.794 1.78023 654.838 1.65884 655.403 1.74918C655.967 1.83951 658.294 2.26578 659.316 2.47751C659.316 2.47751 659.316 2.47749 660.12 1.80561C660.216 1.72374 660.496 1.70963 660.645 1.75762C661.613 2.07098 662.565 2.65541 663.53 2.6667C664.307 2.67517 664.307 2.67514 664.307 2.67514C665.049 2.1557 665.571 2.54244 665.467 3.53615C665.467 3.53615 665.467 3.53614 666.955 2.37869C668.197 1.41039 668.197 1.41043 668.197 1.41043C669.414 1.86211 671.079 2.01456 671.901 1.75202C672.719 1.48948 675.175 2.74291 676.051 2.67798C676.926 2.61588 679.864 3.51354 680.742 3.69139C680.742 3.69139 680.742 3.69142 680.683 2.62431C680.68 2.5622 681.222 2.37026 681.321 2.43236C682.459 3.16918 682.459 3.16914 682.459 3.16914C683.839 2.9433 685.381 3.08449 685.889 3.47972C686.397 3.87494 688.181 3.03364 688.627 3.23125C689.073 3.42887 690.773 3.7281 691.357 3.43733C691.944 3.14373 695.211 3.23688 697.054 3.30181C697.054 3.30181 697.054 3.30188 698.652 3.96811C699.171 4.18549 700.168 3.5249 700.972 3.44586C701.557 3.3894 701.557 3.38934 701.557 3.38934C702.237 3.57284 703.039 3.5785 703.335 3.40347C703.335 3.40347 703.335 3.4035 703.369 3.43173C704.837 4.60047 704.837 4.60047 704.837 4.60047C706.585 3.9794 708.225 4.10639 708.482 4.88555C708.738 5.66188 710.136 7.51382 710.486 7.45736C710.836 7.40373 711.793 7.43476 711.855 7.64931C711.917 7.86386 711.494 8.67694 710.921 8.98183C710.348 9.28954 710.285 11.7569 709.365 13.047C709.365 13.047 709.365 13.047 709.676 14.6476C709.746 15.0174 709.746 15.0175 709.746 15.0175C709.712 15.5934 709.492 15.9208 709.255 15.7458C709.018 15.5708 708.383 15.5623 708.163 15.9575C708.163 15.9575 708.163 15.9575 708.177 15.9632C709.775 16.6068 707.883 17.688 708.642 18.4276C708.73 18.5123 708.727 18.7693 708.637 18.8512C707.423 19.9267 707.423 19.9267 707.423 19.9267C707.372 20.7425 706.065 21.6403 704.518 21.9226C704.518 21.9226 704.518 21.9226 703.146 20.8781C702.92 20.7059 702.92 20.7059 702.92 20.7059C702.025 21.0757 700.583 21.4003 699.71 21.4257C698.841 21.4511 695.911 21.2253 695.1 21.3947C695.1 21.3947 695.1 21.3947 694.349 21.406C693.615 21.4173 693.615 21.4173 693.615 21.4173C692.828 21.2761 691.905 21.1519 691.56 21.1434C691.216 21.1349 689.929 21.0587 689.511 21.1773C689.093 21.2958 686.315 21.3975 684.285 21.389C682.256 21.3806 675.946 21.341 674.777 21.2027C673.609 21.0644 670.489 22.0383 670.213 22.0355C670.213 22.0355 670.213 22.0355 669.961 22.0553C668.426 22.171 668.426 22.171 668.426 22.171C666.774 21.8916 664.798 21.8266 664.033 22.0271C663.268 22.2275 660.784 21.612 660.146 21.6995C659.507 21.787 657.249 21.9564 656.49 21.7871C655.73 21.6177 652.015 22.0044 650.217 22.0524C650.217 22.0524 650.217 22.0524 648.563 22.0524C646.908 22.0524 645.251 22.0524 643.597 22.0524C642.578 22.0524 640.98 22.3714 640.661 21.9847C639.91 21.0841 638.908 22.3489 638.346 21.5528C638.239 21.4004 637.64 21.3975 637.293 21.4455C636.522 21.5556 635.399 22.075 635.08 21.8379C633.976 21.022 633.976 21.022 633.976 21.022C633.16 21.6036 632.037 21.9 631.478 21.6826C630.919 21.4653 629.696 21.3354 629.036 21.1434C628.375 20.9515 626.354 21.7137 625.784 21.4032C625.213 21.0926 623.206 22.1343 622.574 22.2529C621.941 22.3715 619.559 21.389 618.376 21.1801C618.376 21.1801 618.376 21.1801 617.114 21.948C616.216 22.4957 616.216 22.4957 616.216 22.4957C614.455 22.2388 612.713 21.8944 612.343 21.7335C611.973 21.5726 610.299 21.3523 609.399 21.2027C608.498 21.0531 605.026 22.4166 603.442 23.0066C603.442 23.0066 603.442 23.0066 602.327 21.4596C602.228 21.3213 601.443 21.3016 601.249 21.454C600.032 22.4167 598.637 20.7962 597.389 21.6911C596.994 21.9734 596.238 22.0807 595.684 22.0242C594.629 21.9198 593.601 21.4907 592.559 21.4766C591.65 21.4653 591.65 21.4653 591.65 21.4653C590.662 21.7448 589.389 21.9198 588.819 21.8492C588.248 21.7814 586.21 21.7391 585.728 21.5161C585.248 21.2903 583.373 22.1343 582.749 22.3714C582.125 22.6057 580.465 21.6262 579.864 21.8661C579.263 22.1061 576.564 21.9226 575.477 21.7504C575.477 21.7504 575.477 21.7504 574.486 21.7504C573.524 21.7504 572.558 22.0468 571.598 22.0298C569.811 21.9988 569.811 21.9988 569.811 21.9988C567.861 21.7702 564.696 21.612 562.779 21.6515C562.779 21.6515 562.779 21.6516 561.173 22.0976C559.764 22.4872 559.764 22.4872 559.764 22.4872C558.327 22.1936 555.798 21.9988 554.146 22.0524C554.146 22.0524 554.146 22.0524 552.619 22.0524C551.092 22.0524 549.565 22.0524 548.034 22.0524C546.504 22.0524 544.98 22.0524 543.45 22.0524C541.92 22.0524 540.395 22.0524 538.865 22.0524C537.335 22.0524 535.808 22.0073 534.283 22.0694C533.332 22.1061 533.332 22.1061 533.332 22.1061C532.293 22.3319 531.291 22.5436 531.105 22.5775C530.918 22.6114 529.495 22.4251 528.341 22.2332C527.186 22.0412 520.713 22.5155 520.247 22.3658C519.781 22.2162 518.494 22.2614 518.02 22.1965C517.546 22.1315 515.185 22.6255 513.963 22.6735C513.963 22.6735 513.963 22.6735 512.817 22.6735C511.671 22.6735 510.525 22.6735 509.379 22.6735C508.105 22.6735 506.832 22.6735 505.559 22.6735C504.413 22.6735 503.267 22.6735 502.12 22.6735C500.974 22.6735 499.828 22.6735 498.682 22.6735C497.536 22.6735 496.39 22.6735 495.244 22.6735C494.097 22.6735 494.097 22.6735 494.097 22.6735C492.841 22.6904 489.109 22.7865 485.803 22.8881C482.498 22.9897 472.764 23.6757 471.51 24.1133C471.51 24.1133 471.51 24.1133 471.138 23.8366C470.192 23.1365 470.192 23.1365 470.192 23.1365C469.548 23.5769 468.25 23.5628 467.31 23.1026C467.31 23.1026 467.31 23.1026 466.135 23.8451C465.5 24.2459 464.168 23.9156 463.148 23.9156C461.494 23.9156 461.494 23.9156 461.494 23.9156C459.676 23.893 457.559 24.023 456.785 24.2036C456.012 24.3843 453.262 23.6926 452.441 23.2155C452.441 23.2155 452.441 23.2156 451.856 23.958C451.009 25.0336 451.009 25.0335 451.009 25.0335C450.338 24.4322 449.03 24.0426 448.107 24.1697C447.181 24.2967 444.147 24.4859 443.427 24.4379C442.707 24.3899 439.864 24.8331 438.549 24.6468C438.549 24.6468 438.549 24.6468 437.349 24.5593C436.087 24.4661 436.087 24.4661 436.087 24.4661C434.684 24.5141 432.931 24.7033 432.194 24.8896C431.457 25.0731 429.297 25.2001 428.146 25.6546C428.146 25.6546 428.146 25.6546 426.808 25.234C425.701 24.884 424.295 25.1635 423.022 25.1635C421.749 25.1635 421.749 25.1635 421.749 25.1635C420.351 25.1776 418.612 25.4372 417.887 25.7393C417.887 25.7393 417.887 25.7393 417.229 25.7393C416.571 25.7393 416.571 25.7393 416.571 25.7393C415.854 25.4457 412.791 25.2735 409.765 25.3554C406.736 25.4373 398.357 26.2644 397.857 26.8967C397.857 26.8967 397.857 26.8968 396.948 25.9878C396.739 25.7789 395.52 26.3096 394.746 26.3886C393.995 26.4677 393.995 26.4677 393.995 26.4677C393.163 26.4564 391.884 26.0781 391.158 25.6264C390.43 25.1747 387.805 26.3746 386.969 26.383C386.133 26.3915 383.237 26.3943 382.396 26.383C381.554 26.3717 378.553 26.5834 377.591 26.7754C377.591 26.7754 377.591 26.7754 376.716 26.7782C375.894 26.781 375.059 26.3971 374.248 26.4366C372.67 26.5128 372.67 26.5129 372.67 26.5129C370.945 26.4536 368.3 26.4338 366.795 26.4649C365.291 26.4959 360.811 27.1339 359.876 26.9533C359.876 26.9533 359.876 26.9532 359.032 26.9109C357.81 26.8516 357.81 26.8516 357.81 26.8516C356.472 27.004 354.823 27.004 354.143 26.8516C353.462 26.6992 351.156 27.6336 350.244 27.7324C349.332 27.8341 345.987 27.7155 344.937 27.7324C343.887 27.7494 339.344 27.7494 337.165 27.9018C334.983 28.0542 327.389 28.2744 325.147 28.297C322.906 28.3196 316.624 28.4099 316.161 28.6386C315.698 28.8701 313.629 28.2857 313.025 28.2038C312.421 28.122 310.205 28.9435 309.141 29.0056C308.076 29.0705 303.771 28.9802 302.018 29.0084C300.265 29.0367 294.289 28.9915 292.6 29.175C290.912 29.3585 283.682 29.5081 280.32 29.5081C280.32 29.5081 280.32 29.5081 277.266 29.5081C274.084 29.5081 274.084 29.5081 274.084 29.5081C270.584 29.5025 266.962 29.5165 266.036 29.5391C266.036 29.5391 266.036 29.5392 265.344 30.115C264.692 30.6571 264.119 28.9152 263.213 30.0021C263.029 30.2195 263.029 30.2195 263.029 30.2195C262.21 30.084 261.028 30.1574 260.398 30.3804C259.768 30.6034 257.383 29.7847 255.96 30.0981C255.96 30.0981 255.96 30.0981 254.653 30.1038C244.722 30.1461 244.722 30.1461 244.722 30.1461C233.799 30.1489 223.724 29.9287 222.332 29.6549C222.332 29.6549 222.332 29.6549 221.268 30.6063C221.104 30.7503 221.104 30.7502 221.104 30.7502C220.653 30.6853 219.628 30.5441 218.832 30.4312C218.036 30.3211 215.712 30.355 215.43 30.5696C215.148 30.7841 213.928 30.2901 213.592 30.4228C213.256 30.5555 211.658 30.657 210.865 30.5836C210.865 30.5836 210.865 30.5837 210.142 30.5018L206.678 30.7023C205.922 30.7164 205.922 30.7163 205.922 30.7163C205.092 30.7248 204.273 30.5187 204.107 30.2619C203.94 30.005 202.379 30.5272 201.651 30.5498C201.651 30.5498 201.651 30.5498 200.97 30.4792C200.637 30.4453 200.208 30.0699 200.03 30.1518C197.425 31.3233 197.425 31.3233 197.425 31.3233C194.398 30.993 189.404 30.7333 186.324 30.7474C186.324 30.7474 186.324 30.7474 183.524 30.7474C181.743 30.7474 179.958 30.7474 178.177 30.7474C176.523 30.7474 176.523 30.7474 176.523 30.7474C174.719 30.7926 172.54 30.7191 171.676 30.5836C170.812 30.4481 167.715 31.7213 166.371 32.1532C166.371 32.1532 166.371 32.1533 165.473 30.8716C165.366 30.7164 164.66 30.6429 164.437 30.77C163.164 31.4983 163.164 31.4983 163.164 31.4983C161.733 31.1878 159.367 31.0721 157.908 31.2386C157.908 31.2386 157.908 31.2386 156.581 31.3402C155.068 31.456 153.529 31.3685 152.002 31.3685C150.602 31.3685 149.201 31.3685 147.801 31.3685C146.274 31.3685 144.747 31.3685 143.217 31.3685C141.816 31.3685 140.416 31.3685 139.016 31.3685C137.489 31.3685 135.961 31.3685 134.431 31.3685C133.031 31.3685 133.031 31.3685 133.031 31.3685C131.493 31.3826 129.285 31.2555 128.125 31.0833C126.964 30.9111 123.659 31.806 123.241 31.6592C122.823 31.5124 120.226 31.3289 118.425 31.2414C116.624 31.1539 111.401 31.8992 110.766 31.871C110.131 31.8428 108.152 31.8145 107.689 31.5435C107.226 31.2724 105.137 31.9754 104.535 32.0544C103.934 32.1335 101.958 31.5238 101.182 31.7129C100.405 31.9021 97.7318 32.0404 97.0035 32.1364C96.278 32.2323 93.8841 31.6113 93.3393 31.7242C92.7944 31.8371 90.1661 31.9585 88.7659 31.95C87.3657 31.9415 81.6631 31.8145 79.2014 31.5802C79.2014 31.5802 79.2015 31.5802 77.0983 32.588C76.72 32.7687 76.72 32.7687 76.72 32.7687C76.1187 32.6671 74.6197 32.6078 73.3888 32.6416C73.3888 32.6416 73.3889 32.6416 72.6012 32.2492C71.3111 31.6056 71.3111 31.6056 71.3111 31.6056C70.3739 32.1081 68.9228 32.4101 68.09 32.2746C68.09 32.2746 68.09 32.2747 67.1471 32.5457C66.128 32.8393 66.128 32.8393 66.128 32.8393C64.8125 32.7066 63.2796 32.6783 62.7178 32.7743C62.156 32.8703 58.0598 31.9755 54.5705 31.7609C54.5705 31.7609 54.5705 31.7608 51.6571 33.1498C50.6182 33.6466 50.6182 33.6467 50.6182 33.6467C49.4579 33.4152 47.8799 33.2317 47.1092 33.243C46.3385 33.2543 43.6961 33.274 42.9424 33.3277C42.1886 33.3813 40.4101 33.034 40.0968 33.1413C39.7834 33.2514 38.0275 33.2712 37.0479 33.2543C36.0683 33.2401 32.8246 33.178 32.0173 33.1046C31.2099 33.0312 28.8018 33.226 28.1186 33.0369C27.4354 32.8478 25.8715 33.7173 25.6739 33.5479C25.4763 33.3785 24.556 32.9635 24.2963 33.1921C24.0366 33.4208 22.4613 33.8302 21.6313 33.8528C21.6313 33.8528 21.6313 33.8528 20.8662 33.8528C19.466 33.8528 18.0658 33.847 16.6656 33.8555C15.8893 33.8583 15.8892 33.8584 15.8892 33.8584C15.542 33.3587 15.1412 32.9494 15 32.9494C14.8589 32.9494 14.4551 33.1668 14.41 33.4378C14.3676 33.7116 12.3859 33.7031 11.0534 33.5253C11.0534 33.5253 11.0534 33.5252 9.83952 33.5168C8.89945 33.5111 8.89943 33.5112 8.89943 33.5112C7.7928 33.4829 7.05318 33.4124 7.25926 33.3531C7.46534 33.2938 7.87181 32.7969 7.55563 32.4271C7.23945 32.0545 7.04749 30.657 7.19146 30.2053C7.33544 29.7565 7.4484 28.3874 6.99107 28.3874C6.53374 28.3874 5.51463 28.5341 5.60497 28.712C5.6953 28.8898 5.73482 29.381 5.50615 29.4431C5.28031 29.5053 4.57453 29.1721 4.16519 28.8475C3.75585 28.5228 1.75429 27.8397 1.36188 27.4755C0.969483 27.1113 0.249596 25.601 1.03158 25.4316C1.81356 25.2623 2.70852 27.2243 3.23078 27.611C3.23078 27.611 3.2308 27.611 3.87727 27.6138C4.10311 27.6138 4.39667 27.2948 4.52936 27.0718C4.60276 26.9476 4.60276 26.9476 4.60276 26.9476C4.45596 26.7217 4.17646 26.5891 3.97884 26.6568C3.78123 26.7246 3.14325 26.7105 3.14325 26.431C3.14325 26.1515 3.78694 25.2227 4.57174 25.0335C5.35655 24.8444 7.6093 23.9975 7.6093 23.6249C7.6093 23.2522 7.88599 22.0779 8.22193 22.4957C8.56069 22.9135 9.90444 23.6023 10.4465 23.0829C10.4465 23.0829 10.4465 23.0829 10.63 22.6058C10.8727 21.9734 11.0336 22.1146 11.5474 22.411C11.9059 22.6171 11.906 22.6171 11.906 22.6171C12.4734 22.6425 13.9837 22.6735 15.2654 22.6848C16.547 22.6989 19.6213 21.6713 19.339 21.5584C19.0567 21.4455 20.0222 20.7341 22.0999 20.2231C22.0999 20.2231 22.0999 20.2231 24.347 21.0474C24.7761 21.2055 25.2278 21.358 25.6852 21.406C26.0098 21.4399 26.0099 21.4399 26.0099 21.4399C26.5688 21.2846 26.7523 20.8527 26.4192 20.4772C26.0861 20.1017 25.5355 19.029 25.9279 18.9217C25.9279 18.9217 25.928 18.9217 26.2555 18.9613C26.6394 19.0093 27.1363 19.4101 27.3367 19.3141C28.6155 18.7044 28.6155 18.7044 28.6155 18.7044C29.4003 19.4299 30.2924 20.0538 30.6001 20.0905C30.9078 20.1272 32.1584 20.0622 31.862 19.7912C31.5656 19.5202 31.8677 18.8709 32.4944 18.3938C33.1211 17.9167 35.4557 17.8208 35.8876 17.8659C36.3224 17.9111 38.084 17.8123 38.722 17.8885C39.36 17.9647 41.257 17.8264 42.1407 18.0663C43.0243 18.3063 44.7971 16.7112 45.2799 16.7621C45.7598 16.8157 46.6519 17.7247 46.7394 17.8348C46.8269 17.9449 47.1798 18.0776 47.3237 17.8857C47.3237 17.8857 47.3238 17.8857 47.3266 17.7078C47.3492 16.0084 47.3492 16.0083 47.3492 16.0083C48.8228 16.2624 50.8074 16.8073 51.7588 17.2166C51.7588 17.2166 51.7588 17.2166 52.9501 16.6435C54.0285 16.1241 54.0285 16.1241 54.0285 16.1241C55.5134 15.966 57.2298 15.6413 57.8424 15.4014C58.455 15.1614 59.9315 16.1777 60.2166 16.0789C60.2166 16.0789 60.2165 16.0789 60.3069 15.9236C60.4706 15.6413 60.4707 15.6413 60.4707 15.6413C60.801 15.5425 61.6987 15.6244 62.4637 15.8192C62.4637 15.8192 62.4637 15.8192 63.1666 15.8135C64.1999 15.8022 64.1998 15.8022 64.1998 15.8022C65.2895 15.5708 66.5458 15.3138 66.9947 15.2292C67.4408 15.1473 69.414 15.057 70.2638 14.9638C71.1135 14.8706 74.0946 14.6984 74.9951 14.8283C75.8929 14.9581 78.8148 14.0604 79.6984 13.9786C80.5848 13.8967 83.148 14.3315 83.5574 14.0689C83.9667 13.8064 85.5985 14.3315 85.9994 14.0661C86.3974 13.8007 87.7807 14.3202 88.0291 14.1169C88.2775 13.9137 89.1922 13.5522 89.4858 13.7781C89.7794 14.0039 90.934 14.4528 91.4478 14.3145C91.9616 14.1761 93.9659 14.052 94.7648 14.1169C95.5638 14.1847 97.9633 13.9362 98.5618 13.987C99.1603 14.0378 101.052 13.812 101.489 13.6483C101.927 13.4817 103.725 13.2671 104.549 13.109C105.374 12.9509 107.813 14.0548 108.335 14.2185C108.857 14.3851 109.479 13.0582 109.761 12.9397C109.761 12.9397 109.761 12.9397 109.916 13.0075C111.105 13.5297 111.105 13.5297 111.105 13.5297C112.313 13.143 113.411 12.7759 113.541 12.7082C113.541 12.7082 113.541 12.7082 113.626 12.7336C114.289 12.9256 115.04 13.4055 115.579 13.2785C116.226 13.1261 116.226 13.126 116.226 13.126C116.79 13.2389 117.527 13.1684 117.863 12.9679C118.196 12.7675 119.819 12.9482 120.536 13.1994C120.536 13.1994 120.536 13.1994 121.217 13.3236C121.68 13.4083 121.68 13.4083 121.68 13.4083C122.219 13.3095 123.266 13.1853 124.006 13.126C124.745 13.0695 127.399 13.1119 128.356 13.6172C128.356 13.6172 128.356 13.6172 129.488 12.7873C130.132 12.3158 131.456 13.0949 132.308 12.3299C132.39 12.2565 132.994 12.6235 133.381 12.7139C135.075 13.1091 135.075 13.109 135.075 13.109C136.947 12.8973 138.821 12.4908 139.245 12.2113C139.668 11.929 141.207 12.4287 141.548 12.1012C141.89 11.7738 143.231 12.6094 143.451 12.6828C143.674 12.7562 144.687 12.8212 145.447 12.9736C146.206 13.126 149.041 12.4456 150.396 12.3186C150.396 12.3186 150.396 12.3186 151.389 13.1457C151.536 13.2699 151.536 13.27 151.536 13.27C151.951 13.349 152.575 13.143 152.925 12.8127C153.275 12.4824 154.184 12.217 154.763 12.1351C155.339 12.0532 158.128 12.2678 159.63 12.5388C159.63 12.5388 159.63 12.5388 160.827 11.5169C161.132 11.2571 162.142 11.6411 162.667 11.4435C163.847 11.0002 163.847 11.0003 163.847 11.0003C164.864 11.4746 166.041 11.9008 166.459 11.9488C166.877 11.994 168.426 11.6806 168.991 11.8697C168.991 11.8697 168.991 11.8698 169.502 12.1041C170.16 12.4061 170.473 10.9184 171.312 11.8896C171.391 11.9827 172.254 11.5112 172.76 11.5056C173.471 11.4971 173.471 11.4971 173.471 11.4971C174.242 11.6722 175.094 11.8811 175.368 11.963C175.642 12.0448 177.322 11.8415 178.338 11.9093C179.354 11.977 182.014 10.9975 182.287 11.1104C182.561 11.2261 183.928 11.8669 184.645 12.3581C184.645 12.3581 184.645 12.3582 185.353 11.4012C186.429 9.94447 186.429 9.94449 186.429 9.94449C188.004 10.5543 190.017 11.2007 190.906 11.3786C191.795 11.5564 194.774 10.8422 195.465 10.5853C196.154 10.3284 198.046 10.3171 198.723 10.159C198.723 10.159 198.723 10.159 199.166 10.4215C199.66 10.7123 199.66 10.7123 199.66 10.7123C200.081 11.1668 200.88 11.1697 201.433 10.718C201.433 10.718 201.433 10.7179 201.891 10.3594C201.97 10.2973 201.97 10.2974 201.97 10.2974C202.241 10.2099 202.735 10.3199 203.065 10.5457C203.395 10.7688 204.609 11.1923 204.962 10.941C205.315 10.6898 208.2 10.6982 208.773 10.8394C209.343 10.9805 210.687 10.8958 211.243 11.02C211.799 11.1442 213.039 10.8422 213.502 10.8732C213.965 10.9043 215.628 10.701 216.212 10.4159C216.796 10.1336 219.297 10.9918 220.469 11.1584C220.469 11.1584 220.469 11.1583 221.228 10.2493C221.31 10.1533 221.72 10.2098 221.968 10.2409C223.521 10.4385 223.521 10.4385 223.521 10.4385C225.223 10.6361 227.264 10.4949 228.057 10.1195C228.851 9.744 231.806 10.7716 232.811 10.749C232.811 10.749 232.811 10.749 233.619 10.5683C234.37 10.4018 234.37 10.4018 234.37 10.4018C235.202 10.3764 236.563 10.2098 237.39 10.0348C238.217 9.85693 240.408 10.845 240.69 10.9184C240.69 10.9184 240.69 10.9184 240.885 10.8478C243.124 10.0263 243.124 10.0263 243.124 10.0263C245.713 10.1421 248.363 10.2268 249.013 10.2098C249.662 10.1957 252.076 10.3905 253.103 10.9862C253.103 10.9862 253.103 10.9862 253.984 9.69887C254.371 9.13144 254.371 9.13139 254.371 9.13139C255.458 9.40804 256.595 9.89644 256.9 10.2154C257.205 10.5344 258.845 9.70732 259.289 9.61134C259.732 9.51818 261.135 10.1759 261.564 10.2296C261.564 10.2296 261.564 10.2296 261.764 10.0828C262.823 9.30361 262.823 9.30361 262.823 9.30361C263.862 9.76376 265.31 10.2267 266.038 10.334C266.767 10.4413 268.847 9.96424 269.355 9.73557C269.864 9.50691 271.62 9.97835 271.885 9.90495C272.15 9.83155 273.113 9.39962 273.404 9.13707C273.694 8.87453 274.829 9.2923 275.103 8.98458C275.103 8.98458 275.103 8.98465 275.961 9.33471C276.91 9.72146 276.91 9.72144 276.91 9.72144C278.324 9.4956 280.219 9.15686 281.119 8.97054C282.02 8.78422 284.405 9.2839 284.809 9.20203C285.213 9.12016 286.856 9.32055 287.604 9.52381C287.604 9.52381 287.604 9.52385 288.298 9.57748C288.552 9.59725 288.552 9.59721 288.552 9.59721C288.942 9.21893 289.34 9.21049 289.43 9.57748C289.52 9.94448 290.266 10.8534 290.822 10.5655C291.378 10.2775 293.134 9.46173 293.588 9.27259C294.043 9.08345 297.23 9.04951 297.792 9.15396C298.354 9.25841 300.175 8.49056 300.875 8.42563C301.578 8.3607 303.957 8.46239 304.567 8.66565C305.177 8.86891 308.246 8.58655 309.829 8.56115C309.829 8.56115 309.829 8.56117 310.809 8.05302C311.687 7.59851 311.687 7.59848 311.687 7.59848C312.24 7.9683 312.912 8.43411 313.183 8.63455C313.454 8.83498 315.837 8.45387 317.056 8.13486C318.273 7.81586 322.03 7.89777 322.536 8.05586C323.041 8.21395 324.938 8.22526 325.65 8.10669C326.361 7.98813 328.851 7.81021 329.588 7.86667C330.325 7.92313 332.301 7.43198 332.707 7.26542C333.114 7.09886 334.251 7.72551 334.387 7.76786C334.387 7.76786 334.387 7.76792 334.486 7.73969C335.149 7.5449 335.793 7.21173 336.468 7.16091C337.063 7.11575 337.735 7.54483 338.305 7.46296C339.178 7.33593 339.178 7.33598 339.178 7.33598C340.154 7.26258 341.47 7.09598 342.097 6.96612C342.726 6.83626 344.183 7.47991 344.321 7.2089C344.321 7.2089 344.321 7.2089 344.522 7.01411C344.668 6.87014 344.668 6.87015 344.668 6.87015C344.934 6.79393 345.939 6.87303 346.904 7.04806C347.87 7.22308 352.161 6.74032 352.889 6.89841C352.889 6.89841 352.889 6.89838 353.471 7.13834C354.205 7.44041 354.205 7.44039 354.205 7.44039C354.812 7.10727 355.862 7.0085 356.539 7.22587C356.539 7.22587 356.539 7.22589 357.031 7.08191C357.897 6.82784 357.897 6.82785 357.897 6.82785C358.753 6.32817 359.859 6.05149 360.359 6.21522C360.856 6.37896 362.719 6.31966 363.343 6.12769C363.967 5.93572 365.231 5.98942 365.748 5.90473C366.267 5.82004 367.71 6.05146 368.165 6.17568C368.616 6.29989 369.94 6.0374 370.118 6.23219C370.296 6.42698 371.411 6.77699 372.199 6.56526C372.984 6.35353 377.605 6.45521 379.197 6.40157C380.789 6.34793 383.759 5.56031 384.369 5.41633C384.369 5.41633 384.369 5.4163 385.162 5.59415C386.687 5.93574 386.686 5.93574 386.686 5.93574C388.502 5.8934 390.546 5.86516 391.226 5.87363C391.226 5.87363 391.226 5.87366 391.909 5.62241C392.793 5.29776 392.793 5.2977 392.793 5.2977C393.956 5.27512 395.379 5.36834 395.952 5.50102C396.528 5.6337 398.521 5.36266 399.015 5.44735C399.015 5.44735 399.015 5.44738 399.478 5.53772C399.912 5.62241 399.913 5.62241 399.913 5.62241C400.37 5.69298 401.945 5.61955 403.41 5.45863C403.41 5.45863 403.41 5.45863 404.72 5.26384C405.832 5.10011 405.832 5.10015 405.832 5.10015C407.072 4.95336 408.175 4.83192 408.286 4.82628C408.396 4.82063 409.155 4.98717 409.833 5.10291C410.51 5.21583 412.698 5.34011 413.263 5.50102C413.827 5.66193 415.244 6.2011 415.439 5.92161C415.634 5.64213 416.611 5.3062 417.023 5.28926C417.435 5.27514 418.937 4.60612 419.798 4.56377C420.659 4.52142 424.055 4.46496 425.404 4.40568C426.754 4.3464 430.847 4.68514 431.463 4.79242C432.078 4.89969 433.876 4.19956 434.288 4.32659C434.703 4.45363 435.477 4.43388 435.745 4.5101C436.014 4.58632 437.987 4.25886 439.602 3.90315C439.602 3.90315 439.602 3.90316 441.101 4.04996C442.199 4.15723 442.199 4.15722 442.199 4.15722C443.108 3.77046 444.55 3.66887 445.403 3.93141C445.403 3.93141 445.403 3.93136 446.205 3.985C447.018 4.03864 447.018 4.03867 447.018 4.03867C447.921 3.77331 449.138 3.87494 449.722 4.25888C450.304 4.64563 452.89 3.26795 454.25 3.03646C454.25 3.03646 454.25 3.03648 455.391 3.75635C455.49 3.81846 455.907 3.68009 456.034 3.54459C456.238 3.33286 456.238 3.33291 456.238 3.33291C456.356 3.03367 456.825 2.67511 457.276 2.53678C457.731 2.39845 459.312 2.99699 459.902 3.15225C460.492 3.30752 462.7 3.2228 463.27 3.36677C463.843 3.51075 465.088 3.28211 465.52 3.22565C465.952 3.16919 467.917 3.39786 468.721 3.53055C469.526 3.66323 472.349 3.08446 473.263 3.25667C473.263 3.25667 473.263 3.25671 473.622 2.99416C474.771 2.14725 475.166 3.60106 475.88 3.36393C476.623 3.11832 476.623 3.11831 476.623 3.11831C477.329 2.62428 478.421 2.1246 479.054 2.01168C479.686 1.89876 482.037 2.15005 482.65 2.26015C483.263 2.37024 485.442 2.32223 486.029 2.13591C486.616 1.94959 488.728 2.31379 489.295 2.52834C489.863 2.74289 492.025 2.51988 493.166 2.31098C493.166 2.31098 493.166 2.31093 494.349 2.71744C495.173 2.99975 496.373 2.96027 497.019 2.07948L499.45 1.72376C501.977 2.53962 504.619 2.37308 507.095 1.83671C508.057 1.6278 508.935 2.96869 509.892 1.6955C510.183 1.30875 511.789 1.50079 512.78 1.56007C513.336 1.59395 513.336 1.59393 513.336 1.59393C513.932 1.848 514.638 1.9722 514.912 1.87057C515.183 1.76894 515.911 1.47819 516.47 1.15636C517.029 0.834538 518.576 1.96369 519.104 1.90158C519.629 1.83947 520.919 1.32006 521.173 1.26078C521.427 1.20432 522.587 1.75765 523.155 2.09077C523.155 2.09077 523.155 2.09079 523.683 2.09361C524.214 2.09644 524.73 1.68141 525.286 1.54026C526.207 1.30595 526.207 1.30592 526.207 1.30592C527.169 1.60799 528.183 1.91296 528.462 1.98635C528.742 2.05975 529.453 1.81695 529.792 1.64192C530.131 1.46689 531.333 1.88184 531.633 1.81974C531.633 1.81974 531.632 1.81972 531.858 1.68422C532.163 1.50354 532.431 1.05467 532.671 1.07443C533.321 1.12525 533.964 1.52615 534.583 1.49227C535.382 1.4471 536.141 1.02369 536.948 0.939002C537.663 0.86278 537.663 0.862757 537.663 0.862757C538.439 1.00391 539.571 0.927674 540.178 0.690539C540.178 0.690539 540.178 0.690516 540.802 1.12526C541.208 1.40757 541.208 1.40758 541.208 1.40758C541.894 1.45275 543.258 1.56 544.237 1.64752C545.217 1.73503 548.193 1.15354 548.836 1.42456C549.48 1.69557 553.068 1.30314 555.349 1.74918C555.349 1.74918 555.349 1.74919 557.483 0.947445C558.113 0.71031 559.12 0.704638 559.725 0.955888C560.763 1.39064 560.763 1.39061 560.763 1.39061C561.749 1.12242 563.036 0.645331 563.623 0.331974C563.623 0.331974 563.623 0.332014 564.151 0.33766C564.679 0.343306 565.212 0.713087 565.721 0.953045C566.014 1.09137 566.014 1.09141 566.014 1.09141C566.288 1.27773 568.027 1.54313 569.879 1.68146C571.731 1.81979 576.4 0.422382 576.519 0.47602C576.637 0.529658 576.866 0.775251 577.021 0.888172C577.177 1.00109 578.616 0.859936 579.46 0.741369C580.304 0.622801 583.167 0.396909 583.935 0.478777C584.703 0.557822 587.252 1.32288 587.89 1.58825C588.528 1.85361 590.577 1.20154 591.074 1.53466C591.571 1.86778 593.858 0.707482 594.883 0.289673C594.883 0.289673 594.883 0.289707 596.046 1.20719C596.548 1.60524 596.548 1.60522 596.548 1.60522C598.073 1.2354 600.469 0.902234 601.87 0.868357C601.87 0.868357 601.87 0.868366 603.137 0.930473C604.456 0.995403 604.456 0.995432 604.456 0.995432C605.873 1.28903 607.787 1.08576 608.707 0.543736C608.707 0.543736 608.707 0.543741 609.927 1.3963C610.872 2.05971 611.97 0.171142 613.241 1.08581C614.302 1.85085 615.231 1.6899 616.143 0.92203C616.205 0.871215 616.408 0.882508 616.513 0.92203C617.379 1.23256 617.379 1.23252 617.379 1.23252C618.336 1.33697 619.421 1.50636 619.793 1.61082C620.166 1.71245 621.874 1.11963 622.695 0.944602C622.695 0.944602 622.695 0.944629 623.401 0.97286C624.858 1.03214 624.858 1.03213 624.858 1.03213C626.455 1.0039 629.126 0.936104 630.794 0.879643C630.794 0.879643 630.794 0.879725 632.319 0.927716C633.273 0.955946 633.273 0.955888 633.273 0.955888C634.315 1.19585 635.594 1.45839 636.119 1.54026C636.644 1.6193 637.94 1.24383 638.354 1.12526C638.769 1.00952 640.091 1.56 640.452 1.61082C640.452 1.61082 640.452 1.61082 640.508 1.52613C641.29 0.357393 641.291 0.357388 641.291 0.357388C642.202 1.00386 644.836 1.337 645.251 1.66165Z" fill="#B5C18E"/>
</svg>
