<?xml version="1.0" encoding="UTF-8"?>
<svg version="1.1" xmlns="http://www.w3.org/2000/svg" width="32" height="32">
    <path
        d="M0 0 C11.01008092 0.14366654 11.01008092 0.14366654 14.87109375 3.48046875 C19.34528655 8.41095316 19.51575428 13.04126377 19.5 19.4375 C19.50386719 21.02304687 19.50386719 21.02304687 19.5078125 22.640625 C19.375 25.1875 19.375 25.1875 18.375 26.1875 C2.90338642 27.23683657 2.90338642 27.23683657 -2.12109375 22.89453125 C-6.59528655 17.96404684 -6.76575428 13.33373623 -6.75 6.9375 C-6.75257812 5.88046875 -6.75515625 4.8234375 -6.7578125 3.734375 C-6.51446429 -0.93218474 -4.12863398 0.02561187 0 0 Z M5.375 5.1875 C4.694375 6.363125 4.694375 6.363125 4 7.5625 C2.29848887 10.3110949 1.32980916 11.06671032 -1.625 12.1875 C-1.625 12.8475 -1.625 13.5075 -1.625 14.1875 C-0.84125 14.64125 -0.0575 15.095 0.75 15.5625 C3.4985949 17.26401113 4.25421032 18.23269084 5.375 21.1875 C6.035 21.1875 6.695 21.1875 7.375 21.1875 C7.82875 20.40375 8.2825 19.62 8.75 18.8125 C10.45151113 16.0639051 11.42019084 15.30828968 14.375 14.1875 C14.375 13.5275 14.375 12.8675 14.375 12.1875 C13.59125 11.73375 12.8075 11.28 12 10.8125 C9.2514051 9.11098887 8.49578968 8.14230916 7.375 5.1875 C6.715 5.1875 6.055 5.1875 5.375 5.1875 Z "
        fill="#F7DCB9" transform="translate(9.625,2.8125)" />
    <path
        d="M0 0 C15.42765135 -0.4559897 15.42765135 -0.4559897 21 3.375 C22 5 22 5 21.875 7 C20.90943569 9.20700414 19.80627247 10.42932829 18 12 C16.29115995 10.37660195 14.62553283 8.70680947 13 7 C13 6.34 13 5.68 13 5 C12.34 5 11.68 5 11 5 C10.731875 5.78375 10.46375 6.5675 10.1875 7.375 C9 10 9 10 6 12 C5.01 12 4.02 12 3 12 C3 12.66 3 13.32 3 14 C2.34 14 1.68 14 1 14 C-0.38226016 11.23547967 -0.09525387 8.9538637 -0.0625 5.875 C-0.05347656 4.77929688 -0.04445312 3.68359375 -0.03515625 2.5546875 C-0.02355469 1.71164062 -0.01195312 0.86859375 0 0 Z "
        fill="#F7DCB9" transform="translate(4,3)" />
    <path
        d="M0 0 C3.93774177 -0.36630156 5.56539771 -0.30233203 8.875 2 C9.926875 2.99 9.926875 2.99 11 4 C10.43628586 7.26954202 9.50037734 8.82575883 7 11 C4.5 8.6875 4.5 8.6875 2 6 C2 5.01 2 4.02 2 3 C1.34 3 0.68 3 0 3 C0 2.01 0 1.02 0 0 Z "
        fill="#F7DCB9" transform="translate(15,4)" />
    <path
        d="M0 0 C0.66 0.66 1.32 1.32 2 2 C1.625 5.125 1.625 5.125 1 8 C0.34 8 -0.32 8 -1 8 C-1 7.34 -1 6.68 -1 6 C-1.66 6 -2.32 6 -3 6 C-2 4 -1 2 0 0 Z "
        fill="#F7DCB9" transform="translate(26,9)" />
</svg>